<?xml version="1.0" encoding="UTF-8" standalone="no"?>
<!-- Created with Inkscape (http://www.inkscape.org/) -->

<svg
   xmlns:dc="http://purl.org/dc/elements/1.1/"
   xmlns:cc="http://creativecommons.org/ns#"
   xmlns:rdf="http://www.w3.org/1999/02/22-rdf-syntax-ns#"
   xmlns:svg="http://www.w3.org/2000/svg"
   xmlns="http://www.w3.org/2000/svg"
   xmlns:sodipodi="http://sodipodi.sourceforge.net/DTD/sodipodi-0.dtd"
   xmlns:inkscape="http://www.inkscape.org/namespaces/inkscape"
   width="391"
   height="109"
   viewBox="0 0 391 109"
   id="svg2"
   version="1.1"
   inkscape:version="0.91 r13725"
   sodipodi:docname="logowhitetext.svg">
  <defs
     id="defs4" />
  <sodipodi:namedview
     id="base"
     pagecolor="#ffffff"
     bordercolor="#666666"
     borderopacity="1.0"
     inkscape:pageopacity="0.0"
     inkscape:pageshadow="2"
     inkscape:zoom="0.35"
     inkscape:cx="967.38149"
     inkscape:cy="378.97655"
     inkscape:document-units="px"
     inkscape:current-layer="layer1"
     showgrid="false"
     inkscape:window-width="1366"
     inkscape:window-height="705"
     inkscape:window-x="-8"
     inkscape:window-y="-8"
     inkscape:window-maximized="1" />
  <metadata
     id="metadata7">
    <rdf:RDF>
      <cc:Work
         rdf:about="">
        <dc:format>image/svg+xml</dc:format>
        <dc:type
           rdf:resource="http://purl.org/dc/dcmitype/StillImage" />
        <dc:title></dc:title>
      </cc:Work>
    </rdf:RDF>
  </metadata>
  <g
     inkscape:label="Layer 1"
     inkscape:groupmode="layer"
     id="layer1">
    <g
       id="g5495"
       transform="translate(-453.13953,-378)">
      <g
         transform="translate(268.09632,125.4772)"
         id="g5279">
        <g
           id="g5281"
           style="opacity:0.54000005">
          <polygon
             id="polygon5283"
             points="342.824,325.208 342.824,288.895 279.709,324.827 279.709,361.364 311.293,343.124 "
             style="fill:#545454" />
        </g>
        <g
           id="g5285"
           style="opacity:0.54000005">
          <polygon
             id="polygon5287"
             points="185.303,270.337 185.303,306.876 279.824,361.208 279.824,324.896 "
             style="fill:#57938a" />
        </g>
        <g
           id="g5289">
          <g
             id="g5291">
            <polygon
               id="polygon5293"
               points="342.866,288.895 342.866,325.208 311.2,343.208 279.969,325.208 279.969,288.895 311.417,270.739 "
               style="fill:#ffcc00" />
          </g>
          <g
             id="g5295">
            <polygon
               id="polygon5297"
               points="248.2,270.562 248.2,306.876 216.751,325.032 185.303,306.876 185.303,270.562 216.751,252.406 "
               style="fill:#545454" />
          </g>
          <g
             id="g5299">
            <polygon
               id="polygon5301"
               points="279.7,288.729 279.7,325.042 248.251,343.198 216.803,325.042 216.803,288.729 248.251,270.573 "
               style="fill:#545454" />
          </g>
          <g
             id="g5303">
            <polygon
               id="polygon5305"
               points="311.2,306.896 311.2,343.208 279.751,361.364 248.303,343.208 248.303,306.896 279.751,288.739 "
               style="fill:#545454" />
          </g>
          <g
             id="g5307">
            <rect
               id="rect5309"
               height="72.625999"
               width="1"
               y="252.40601"
               x="216.25101"
               style="fill:#ffffff" />
          </g>
          <g
             id="g5311">
            <rect
               id="rect5313"
               height="1"
               width="72.625"
               transform="matrix(0.8662,0.4998,-0.4998,0.8662,173.2981,-69.6827)"
               y="288.21799"
               x="180.439"
               style="fill:#ffffff" />
          </g>
          <g
             id="g5315">
            <rect
               id="rect5317"
               height="72.625"
               width="1"
               y="270.573"
               x="247.75101"
               style="fill:#ffffff" />
          </g>
          <g
             id="g5319">
            <rect
               id="rect5321"
               height="72.625999"
               width="0.99900001"
               transform="matrix(0.5003,0.8658,-0.8658,0.5003,389.7509,-61.6054)"
               y="270.573"
               x="247.752"
               style="fill:#ffffff" />
          </g>
          <g
             id="g5323">
            <rect
               id="rect5325"
               height="1"
               width="72.625999"
               transform="matrix(0.8662,0.4998,-0.4998,0.8662,186.5965,-82.9943)"
               y="306.38599"
               x="211.939"
               style="fill:#ffffff" />
          </g>
          <g
             id="g5327">
            <rect
               id="rect5329"
               height="72.625"
               width="1"
               y="288.73901"
               x="279.25101"
               style="fill:#ffffff" />
          </g>
          <g
             id="g5331">
            <rect
               id="rect5333"
               height="1"
               width="72.625999"
               transform="matrix(0.8662,0.4998,-0.4998,0.8662,199.8959,-96.3065)"
               y="324.552"
               x="243.438"
               style="fill:#ffffff" />
          </g>
          <g
             id="g5335">
            <rect
               id="rect5337"
               height="72.625"
               width="1"
               transform="matrix(0.5001,0.8659,-0.8659,0.5001,358.3628,-43.3746)"
               y="252.40601"
               x="216.252"
               style="fill:#ffffff" />
          </g>
          <g
             id="g5339">
            <rect
               id="rect5341"
               height="72.626999"
               width="0.99900001"
               transform="matrix(0.5003,0.8658,-0.8658,0.5003,421.2185,-79.8023)"
               y="288.73801"
               x="279.25201"
               style="fill:#ffffff" />
          </g>
          <g
             id="g5343">
            <polygon
               id="polygon5345"
               points="310.7,307.184 279.501,289.172 280.001,288.306 311.7,306.607 311.689,343.435 310.689,343.435 "
               style="fill:#ffffff" />
          </g>
          <g
             id="g5347">
            <rect
               id="rect5349"
               height="36.424999"
               width="1"
               transform="matrix(0.4942,0.8693,-0.8693,0.4942,424.3658,-133.6348)"
               y="279.68301"
               x="326.53299"
               style="fill:#ffffff" />
          </g>
        </g>
      </g>
      <g
         style="fill:#ffffff"
         transform="translate(268.09632,125.4772)"
         id="g5351">
        <path
           style="fill:#ffffff"
           id="path5353"
           d="m 368.377,326.281 0,-37.025 2.808,0 0,34.529 19.657,0 0,2.496 -22.465,0 z"
           inkscape:connector-curvature="0" />
        <path
           style="fill:#ffffff"
           id="path5355"
           d="m 405.609,310.941 0,15.34 -2.809,0 0,-15.34 -10.92,-21.685 3.016,0 9.412,18.72 9.205,-18.72 3.016,0 -10.92,21.685 z"
           inkscape:connector-curvature="0" />
        <path
           style="fill:#ffffff"
           id="path5357"
           d="m 449.029,326.281 -21.373,-32.188 0,32.188 -2.809,0 0,-37.025 2.809,0 21.373,32.085 0,-32.085 2.809,0 0,37.025 -2.809,0 z"
           inkscape:connector-curvature="0" />
        <path
           style="fill:#ffffff"
           id="path5359"
           d="m 466.396,326.281 0,-37.025 2.808,0 0,37.025 -2.808,0 z"
           inkscape:connector-curvature="0" />
        <path
           style="fill:#ffffff"
           id="path5361"
           d="m 493.955,326.594 c -3.482,0 -6.811,-1.352 -9.256,-3.796 -3.379,-3.38 -3.432,-6.656 -3.432,-15.028 0,-8.373 0.053,-11.649 3.432,-15.029 2.445,-2.444 5.773,-3.796 9.256,-3.796 4.422,0 7.488,1.82 10.453,4.628 l -1.871,1.872 c -2.549,-2.496 -4.732,-4.004 -8.582,-4.004 -2.65,0 -5.199,0.988 -7.02,2.86 -2.652,2.652 -2.859,5.512 -2.859,13.469 0,7.956 0.207,10.816 2.859,13.468 1.82,1.872 4.369,2.86 7.02,2.86 3.85,0 6.033,-1.508 8.582,-4.004 l 1.871,1.872 c -2.965,2.807 -6.031,4.628 -10.453,4.628 z"
           inkscape:connector-curvature="0" />
        <path
           style="fill:#ffffff"
           id="path5363"
           d="m 535.504,322.798 c -2.445,2.444 -5.773,3.796 -9.258,3.796 -3.482,0 -6.811,-1.352 -9.256,-3.796 -3.379,-3.38 -3.432,-6.656 -3.432,-15.028 0,-8.373 0.053,-11.649 3.432,-15.029 2.445,-2.444 5.773,-3.796 9.256,-3.796 3.484,0 6.812,1.352 9.258,3.796 3.379,3.38 3.432,6.656 3.432,15.029 0,8.372 -0.053,11.648 -3.432,15.028 z m -2.236,-28.497 c -1.873,-1.872 -4.369,-2.86 -7.021,-2.86 -2.65,0 -5.146,0.988 -7.02,2.86 -2.652,2.652 -2.859,5.512 -2.859,13.469 0,7.956 0.207,10.816 2.859,13.468 1.873,1.872 4.369,2.86 7.02,2.86 2.652,0 5.148,-0.988 7.021,-2.86 2.652,-2.651 2.859,-5.512 2.859,-13.468 0,-7.958 -0.207,-10.817 -2.859,-13.469 z"
           inkscape:connector-curvature="0" />
        <path
           style="fill:#ffffff"
           id="path5365"
           d="m 573.1,326.281 -21.373,-32.188 0,32.188 -2.809,0 0,-37.025 2.809,0 21.373,32.085 0,-32.085 2.807,0 0,37.025 -2.807,0 z"
           inkscape:connector-curvature="0" />
      </g>
      <g
         style="fill:#ffffff"
         transform="translate(268.09632,125.4772)"
         id="g5367">
        <path
           style="fill:#ffffff"
           id="path5369"
           d="m 512.223,344.808 c -0.938,0 -1.834,-0.364 -2.492,-1.022 -0.911,-0.91 -0.926,-1.793 -0.926,-4.049 0,-2.254 0.015,-3.137 0.926,-4.047 0.658,-0.659 1.555,-1.023 2.492,-1.023 1.191,0 2.018,0.49 2.816,1.247 l -0.504,0.504 c -0.688,-0.673 -1.275,-1.079 -2.312,-1.079 -0.714,0 -1.4,0.267 -1.891,0.771 -0.715,0.714 -0.77,1.484 -0.77,3.627 0,2.144 0.055,2.914 0.77,3.629 0.49,0.504 1.177,0.77 1.891,0.77 1.037,0 1.625,-0.406 2.312,-1.078 l 0.504,0.504 c -0.799,0.755 -1.625,1.246 -2.816,1.246 z"
           inkscape:connector-curvature="0" />
        <path
           style="fill:#ffffff"
           id="path5371"
           d="m 525.162,344.724 0,-8.223 -3.026,6.821 -0.757,0 -3.081,-6.821 0,8.223 -0.757,0 0,-9.974 0.757,0 3.474,7.69 3.391,-7.69 0.756,0 0,9.974 -0.757,0 z"
           inkscape:connector-curvature="0" />
        <path
           style="fill:#ffffff"
           id="path5373"
           d="m 531.486,344.808 c -1.484,0 -2.408,-0.406 -3.319,-1.317 l 0.532,-0.531 c 0.896,0.896 1.625,1.176 2.83,1.176 1.568,0 2.562,-0.756 2.562,-2.059 0,-0.588 -0.182,-1.078 -0.546,-1.4 -0.364,-0.309 -0.63,-0.406 -1.442,-0.533 l -1.163,-0.182 c -0.757,-0.111 -1.358,-0.364 -1.778,-0.729 -0.533,-0.447 -0.785,-1.064 -0.785,-1.835 0,-1.667 1.191,-2.731 3.096,-2.731 1.232,0 2.018,0.336 2.871,1.078 l -0.49,0.49 c -0.615,-0.545 -1.232,-0.924 -2.423,-0.924 -1.442,0 -2.312,0.799 -2.312,2.059 0,0.574 0.168,1.01 0.519,1.303 0.351,0.295 0.925,0.533 1.485,0.617 l 1.078,0.168 c 0.938,0.14 1.359,0.309 1.779,0.658 0.546,0.448 0.868,1.135 0.868,1.934 0.001,1.679 -1.287,2.758 -3.362,2.758 z"
           inkscape:connector-curvature="0" />
        <path
           style="fill:#ffffff"
           id="path5375"
           d="m 539.982,345.76 -0.742,0 3.992,-12.046 0.742,0 -3.992,12.046 z"
           inkscape:connector-curvature="0" />
        <path
           style="fill:#ffffff"
           id="path5377"
           d="m 554.924,343.812 c -0.588,0.589 -1.457,0.911 -2.493,0.911 l -3.348,0 0,-9.974 3.348,0 c 1.036,0 1.905,0.322 2.493,0.91 1.009,1.01 0.967,2.592 0.967,3.937 0,1.345 0.042,3.209 -0.967,4.216 z m -0.532,-7.619 c -0.574,-0.589 -1.345,-0.771 -2.144,-0.771 l -2.408,0 0,8.629 2.408,0 c 0.799,0 1.569,-0.182 2.144,-0.77 0.798,-0.812 0.743,-2.578 0.743,-3.685 0,-1.107 0.054,-2.59 -0.743,-3.403 z"
           inkscape:connector-curvature="0" />
        <path
           style="fill:#ffffff"
           id="path5379"
           d="m 566.195,344.724 0,-8.223 -3.026,6.821 -0.757,0 -3.081,-6.821 0,8.223 -0.757,0 0,-9.974 0.757,0 3.474,7.69 3.391,-7.69 0.756,0 0,9.974 -0.757,0 z"
           inkscape:connector-curvature="0" />
        <path
           style="fill:#ffffff"
           id="path5381"
           d="m 572.52,344.808 c -1.484,0 -2.408,-0.406 -3.319,-1.317 l 0.532,-0.531 c 0.896,0.896 1.625,1.176 2.83,1.176 1.568,0 2.562,-0.756 2.562,-2.059 0,-0.588 -0.182,-1.078 -0.546,-1.4 -0.364,-0.309 -0.63,-0.406 -1.442,-0.533 l -1.163,-0.182 c -0.757,-0.111 -1.358,-0.364 -1.778,-0.729 -0.533,-0.447 -0.785,-1.064 -0.785,-1.835 0,-1.667 1.191,-2.731 3.096,-2.731 1.232,0 2.018,0.336 2.871,1.078 l -0.49,0.49 c -0.615,-0.545 -1.232,-0.924 -2.423,-0.924 -1.442,0 -2.312,0.799 -2.312,2.059 0,0.574 0.168,1.01 0.519,1.303 0.351,0.295 0.925,0.533 1.485,0.617 l 1.078,0.168 c 0.938,0.14 1.359,0.309 1.779,0.658 0.546,0.448 0.868,1.135 0.868,1.934 0,1.679 -1.288,2.758 -3.362,2.758 z"
           inkscape:connector-curvature="0" />
      </g>
    </g>
  </g>
</svg>
